<svg width="38" height="38" viewBox="0 0 38 38" fill="none" xmlns="http://www.w3.org/2000/svg">
<path d="M14.3678 8.59502C15.3112 5.83413 19.126 5.75051 20.2445 8.34417L20.3392 8.59659L21.6124 12.3199C21.9041 13.1737 22.3756 13.9551 22.9951 14.6113C23.6145 15.2674 24.3674 15.7831 25.2031 16.1236L25.5454 16.2514L29.2687 17.5229C32.0296 18.4664 32.1132 22.2811 29.5211 23.3997L29.2687 23.4944L25.5454 24.7675C24.6913 25.0591 23.9096 25.5305 23.2531 26.15C22.5967 26.7694 22.0808 27.5224 21.7401 28.3583L21.6124 28.699L20.3408 32.4239C19.3973 35.1848 15.5826 35.2684 14.4656 32.6763L14.3678 32.4239L13.0962 28.7006C12.8046 27.8464 12.3332 27.0648 11.7138 26.4083C11.0943 25.7519 10.3413 25.2359 9.50545 24.8953L9.16468 24.7675L5.44142 23.4959C2.67896 22.5525 2.59534 18.7377 5.189 17.6208L5.44142 17.5229L9.16468 16.2514C10.0186 15.9596 10.7999 15.4881 11.4561 14.8687C12.1123 14.2492 12.628 13.4963 12.9684 12.6606L13.0962 12.3199L14.3678 8.59502ZM17.3543 9.61418L16.0827 13.3374C15.6384 14.6395 14.9156 15.829 13.9647 16.8233C13.0138 17.8175 11.8576 18.5925 10.5767 19.0943L10.1823 19.2379L6.45901 20.5094L10.1823 21.781C11.4843 22.2253 12.6739 22.9481 13.6681 23.899C14.6623 24.8499 15.4373 26.0061 15.9391 27.287L16.0827 27.6814L17.3543 31.4047L18.6259 27.6814C19.0701 26.3794 19.7929 25.1899 20.7438 24.1956C21.6947 23.2014 22.8509 22.4264 24.1319 21.9246L24.5263 21.7826L28.2495 20.5094L24.5263 19.2379C23.2242 18.7936 22.0347 18.0708 21.0405 17.1199C20.0462 16.169 19.2712 15.0128 18.7694 13.7319L18.6274 13.3374L17.3543 9.61418ZM29.9755 3.15527C30.2706 3.15527 30.5599 3.23807 30.8103 3.39424C31.0607 3.55042 31.2624 3.77372 31.3922 4.03876L31.4679 4.22334L32.0201 5.84201L33.6404 6.39419C33.9362 6.49468 34.1954 6.68072 34.3854 6.92873C34.5753 7.17673 34.6874 7.47554 34.7073 7.78729C34.7272 8.09904 34.6542 8.40969 34.4974 8.67987C34.3406 8.95006 34.1071 9.16761 33.8265 9.30496L33.6404 9.38069L32.0217 9.93286L31.4695 11.5531C31.3689 11.8488 31.1827 12.108 30.9346 12.2978C30.6865 12.4875 30.3876 12.5994 30.0759 12.6192C29.7642 12.6389 29.4536 12.5657 29.1835 12.4088C28.9134 12.2519 28.696 12.0183 28.5588 11.7377L28.483 11.5531L27.9308 9.93444L26.3106 9.38226C26.0148 9.28178 25.7555 9.09574 25.5656 8.84773C25.3756 8.59973 25.2636 8.30091 25.2437 7.98917C25.2237 7.67742 25.2968 7.36677 25.4536 7.09658C25.6104 6.8264 25.8439 6.60885 26.1244 6.4715L26.3106 6.39577L27.9293 5.84359L28.4814 4.22334C28.5878 3.91164 28.7891 3.64105 29.057 3.4495C29.325 3.25796 29.6461 3.15508 29.9755 3.15527Z" fill="url(#paint0_linear_847_28966)"/>
<defs>
<linearGradient id="paint0_linear_847_28966" x1="19.0076" y1="3.15527" x2="19.0076" y2="34.5594" gradientUnits="userSpaceOnUse">
<stop stop-color="#245DA8"/>
<stop offset="1" stop-color="#ABE6D1"/>
</linearGradient>
</defs>
</svg>
