<svg width="114" height="23" viewBox="0 0 114 23" fill="none" xmlns="http://www.w3.org/2000/svg">
<path d="M11.698 0L14.0132 3.95439L14.1757 4.3579L14.3382 4.92281L14.4194 5.56842V6.09298L14.3788 6.45614L14.2976 6.7386L14.2163 6.9807L14.0945 7.26316L7.79868 18.4404L7.25995 18.109C7.05103 17.9806 6.82903 17.8744 6.59764 17.7923L6.5671 17.7815C6.0684 17.6045 5.53458 17.5475 5.00943 17.6152L4.57153 17.6716C3.93834 17.7531 3.3234 17.9396 2.75232 18.2232C2.40766 18.3944 2.08133 18.5999 1.77832 18.8364L1.09669 19.3684L0 20.4579L1.94967 17.2702L2.07152 17.0684L2.19338 16.907L2.43709 16.6246L2.64018 16.4228L2.84327 16.2614L3.33069 15.9386L3.61501 15.8175L3.93996 15.6965L4.34614 15.5754L4.79294 15.4947L5.28035 15.4544H6.25519L6.62075 15.4947L6.9457 15.5351L11.9011 6.94035L12.0636 6.6579L12.1854 6.37544L12.2667 6.13333L12.3479 5.64912V5.40702L12.3073 5.24561L12.2261 5.04386L12.1448 4.88246L12.023 4.6807L11.9011 4.5193L11.8199 4.4386L11.698 4.3579L5.80839 14.6474L5.40221 14.6877L5.07726 14.7281L4.79294 14.7684L4.54923 14.8088L3.98057 14.9702L3.49316 15.1316L3.29007 15.2123L3.08698 15.3333L2.76203 15.5754L11.698 0Z" fill="#245DA8"/>
<path d="M8.20485 18.8439L9.26093 16.9877L10.3982 17.8351L11.4949 18.8439L12.3479 19.6105L12.699 19.9325C12.8168 20.0405 12.9429 20.1391 13.0763 20.2274L13.3634 20.4175L13.6546 20.5734C13.8115 20.6573 13.9807 20.7159 14.1561 20.747C14.6786 20.8396 15.2029 20.5937 15.4628 20.134L16.694 17.9561H11.3731L9.99205 16.8263L10.5201 15.8175L20.3903 15.8579L16.2472 23H14.2086C13.8373 23 13.4687 22.9378 13.1183 22.8159C12.9303 22.7506 12.7508 22.6632 12.5836 22.5558L12.1448 22.2737L11.2918 21.5474L10.2764 20.6193L9.05784 19.5298L8.20485 18.8439Z" fill="#245DA8"/>
<path d="M0 20.8211H1.99853C3.27472 20.8211 4.4534 20.1428 5.08832 19.043L5.64592 18.0772C6.30874 18.1825 6.92681 18.4759 7.42575 18.922L7.47373 18.9649L5.95541 21.6865C5.7264 22.097 5.3884 22.4372 4.97822 22.67C4.64386 22.8598 4.26544 22.9596 3.88034 22.9596H1.17793L0 20.8211Z" fill="#245DA8"/>
<path d="M29.9185 20.7253V3.77857H32.1625V18.678H39.6501V20.7253H29.9185Z" fill="#245DA8"/>
<path d="M45.5385 20.9982C44.7294 20.9982 44.012 20.8542 43.3861 20.566C42.7755 20.2627 42.2946 19.8533 41.9435 19.3377C41.5924 18.8069 41.4169 18.2003 41.4169 17.5179C41.4169 16.8658 41.5542 16.282 41.829 15.7664C42.1191 15.2356 42.5618 14.7882 43.1571 14.4243C43.7677 14.0603 44.531 13.8025 45.4469 13.6509L50.0265 12.9002V14.6745L45.9277 15.3569C45.134 15.4934 44.5539 15.7436 44.1875 16.1076C43.8364 16.4715 43.6609 16.9189 43.6609 17.4497C43.6609 17.9501 43.8593 18.3671 44.2562 18.7008C44.6684 19.0344 45.1797 19.2012 45.7904 19.2012C46.5689 19.2012 47.2406 19.042 47.8054 18.7235C48.3855 18.3899 48.8358 17.9425 49.1564 17.3814C49.4922 16.8203 49.6601 16.1986 49.6601 15.5162V12.3998C49.6601 11.7325 49.4082 11.1942 48.9045 10.7847C48.416 10.3601 47.7672 10.1478 46.9582 10.1478C46.256 10.1478 45.6301 10.3298 45.0805 10.6937C44.5462 11.0425 44.1493 11.5126 43.8898 12.1041L42.0351 11.1487C42.2641 10.5876 42.6305 10.0871 43.1342 9.64736C43.638 9.19242 44.2257 8.83604 44.8973 8.57824C45.569 8.32044 46.2712 8.19154 47.0039 8.19154C47.9504 8.19154 48.7823 8.37352 49.4998 8.73747C50.2173 9.08626 50.7745 9.57912 51.1714 10.216C51.5835 10.8378 51.7896 11.5657 51.7896 12.3998V20.7253H49.7059V18.4051L50.0952 18.5415C49.8357 19.0268 49.4846 19.4514 49.0419 19.8154C48.5992 20.1793 48.0801 20.4675 47.4848 20.6798C46.8895 20.8921 46.2407 20.9982 45.5385 20.9982Z" fill="#245DA8"/>
<path d="M55.0914 20.7253V8.46451H57.1751V10.9667L56.8774 10.58C57.1827 9.80659 57.6712 9.21517 58.3429 8.80571C59.0146 8.39626 59.7702 8.19154 60.6098 8.19154C61.5715 8.19154 62.434 8.45692 63.1972 8.98769C63.9758 9.51846 64.5101 10.216 64.8001 11.0804L64.2048 11.1032C64.5253 10.1478 65.0672 9.42747 65.8305 8.9422C66.5938 8.44176 67.441 8.19154 68.3722 8.19154C69.227 8.19154 69.9979 8.38868 70.6849 8.78297C71.3871 9.17725 71.9442 9.72319 72.3564 10.4208C72.7686 11.1184 72.9746 11.9069 72.9746 12.7865V20.7253H70.8222V13.4689C70.8222 12.7865 70.7001 12.2102 70.4559 11.7401C70.2116 11.27 69.8758 10.906 69.4484 10.6482C69.0362 10.3753 68.5477 10.2388 67.9829 10.2388C67.4333 10.2388 66.9372 10.3753 66.4945 10.6482C66.0671 10.906 65.7236 11.2776 65.4641 11.7629C65.2199 12.233 65.0978 12.8016 65.0978 13.4689V20.7253H62.9454V13.4689C62.9454 12.7865 62.8232 12.2102 62.579 11.7401C62.3348 11.27 61.9989 10.906 61.5715 10.6482C61.1593 10.3753 60.6708 10.2388 60.106 10.2388C59.5565 10.2388 59.0604 10.3753 58.6177 10.6482C58.1902 10.906 57.8468 11.2776 57.5873 11.7629C57.343 12.233 57.2209 12.8016 57.2209 13.4689V20.7253H55.0914Z" fill="#245DA8"/>
<path d="M75.9991 20.7253V8.46451H78.1286V20.7253H75.9991ZM75.9991 6.50824V3.77857H78.1286V6.50824H75.9991Z" fill="#245DA8"/>
<path d="M81.4329 20.7253V8.46451H83.5166V10.853L83.1732 10.6482C83.4785 9.87484 83.9669 9.27582 84.6386 8.85121C85.3256 8.41143 86.127 8.19154 87.0429 8.19154C87.9283 8.19154 88.7144 8.38868 89.4014 8.78297C90.1036 9.17725 90.6531 9.72319 91.05 10.4208C91.4622 11.1184 91.6683 11.9069 91.6683 12.7865V20.7253H89.5159V13.4689C89.5159 12.7865 89.3938 12.2102 89.1495 11.7401C88.9053 11.27 88.5542 10.906 88.0962 10.6482C87.6535 10.3753 87.1421 10.2388 86.562 10.2388C85.982 10.2388 85.4629 10.3753 85.005 10.6482C84.5623 10.906 84.2112 11.2776 83.9517 11.7629C83.6922 12.233 83.5624 12.8016 83.5624 13.4689V20.7253H81.4329Z" fill="#245DA8"/>
<path d="M98.3334 20.9982C97.5243 20.9982 96.8068 20.8542 96.181 20.566C95.5703 20.2627 95.0895 19.8533 94.7384 19.3377C94.3873 18.8069 94.2117 18.2003 94.2117 17.5179C94.2117 16.8658 94.3491 16.282 94.6239 15.7664C94.9139 15.2356 95.3566 14.7882 95.952 14.4243C96.5626 14.0603 97.3259 13.8025 98.2418 13.6509L102.821 12.9002V14.6745L98.7226 15.3569C97.9288 15.4934 97.3487 15.7436 96.9824 16.1076C96.6313 16.4715 96.4557 16.9189 96.4557 17.4497C96.4557 17.9501 96.6542 18.3671 97.0511 18.7008C97.4632 19.0344 97.9746 19.2012 98.5852 19.2012C99.3638 19.2012 100.035 19.042 100.6 18.7235C101.18 18.3899 101.631 17.9425 101.951 17.3814C102.287 16.8203 102.455 16.1986 102.455 15.5162V12.3998C102.455 11.7325 102.203 11.1942 101.699 10.7847C101.211 10.3601 100.562 10.1478 99.753 10.1478C99.0508 10.1478 98.4249 10.3298 97.8754 10.6937C97.3411 11.0425 96.9442 11.5126 96.6847 12.1041L94.83 11.1487C95.059 10.5876 95.4253 10.0871 95.9291 9.64736C96.4328 9.19242 97.0205 8.83604 97.6922 8.57824C98.3639 8.32044 99.0661 8.19154 99.7988 8.19154C100.745 8.19154 101.577 8.37352 102.295 8.73747C103.012 9.08626 103.569 9.57912 103.966 10.216C104.378 10.8378 104.584 11.5657 104.584 12.3998V20.7253H102.501V18.4051L102.89 18.5415C102.631 19.0268 102.279 19.4514 101.837 19.8154C101.394 20.1793 100.875 20.4675 100.28 20.6798C99.6843 20.8921 99.0356 20.9982 98.3334 20.9982Z" fill="#245DA8"/>
<path d="M107.886 20.7253V8.46451H109.97V10.7165L109.741 10.398C110.031 9.70044 110.474 9.18484 111.069 8.85121C111.664 8.50242 112.39 8.32802 113.244 8.32802H114V10.3298H112.924C112.054 10.3298 111.351 10.6027 110.817 11.1487C110.283 11.6795 110.016 12.4377 110.016 13.4234V20.7253H107.886Z" fill="#245DA8"/>
</svg>
