<svg width="161" height="182" viewBox="0 0 161 182" fill="none" xmlns="http://www.w3.org/2000/svg">
<path d="M91.9579 0L110.158 31.2912L110.796 32.8877L111.435 34.4842L112.074 36.7193L112.712 38.9544L113.032 41.5088L113.351 44.0632V45.979V48.214L113.032 51.0877L112.393 53.3228L111.754 55.2386L110.796 57.4737L61.3053 145.919L57.0703 143.298C55.428 142.281 53.6829 141.441 51.8639 140.791L51.6239 140.706C47.7036 139.305 43.5073 138.854 39.379 139.39L35.9367 139.836C30.9592 140.481 26.1252 141.957 21.6359 144.201C18.9265 145.556 16.3613 147.182 13.9794 149.053L8.62105 153.263L0 161.884L15.3263 136.66L16.2842 135.063L17.2421 133.786L19.1579 131.551L20.7544 129.954L22.3509 128.677L24.2667 127.4L26.1825 126.123L28.4175 125.165L30.9719 124.207L34.1649 123.249L37.6772 122.611L41.5088 122.291H45.3403H49.1719L52.0456 122.611L54.6 122.93L93.5544 54.9193L94.8316 52.6842L95.7895 50.4491L96.4281 48.5333L96.7474 46.6175L97.0667 44.7018V42.786L96.7474 41.5088L96.1088 39.9123L95.4702 38.6351L94.5123 37.0386L93.5544 35.7614L92.9158 35.1228L91.9579 34.4842L45.6596 115.905L42.4667 116.225L39.9123 116.544L37.6772 116.863L35.7614 117.182L33.5263 117.821L31.2912 118.46L29.3754 119.098L27.4596 119.737L25.8632 120.375L24.2667 121.333L22.9895 122.291L21.7123 123.249L91.9579 0Z" fill="#245DA8"/>
<path d="M64.4983 149.112L72.8 134.424L81.7404 141.13L90.3614 149.112L97.0667 155.179L99.8267 157.726C100.753 158.581 101.744 159.361 102.793 160.06L105.049 161.565L107.339 162.798C108.572 163.462 109.902 163.925 111.281 164.171C115.388 164.905 119.51 162.959 121.553 159.321L131.232 142.088H89.4036L78.5474 133.147L82.6983 125.165L160.288 125.484L127.719 182H111.693C108.775 182 105.877 181.507 103.123 180.543C101.645 180.026 100.234 179.335 98.9198 178.485L95.4702 176.253L88.765 170.505L80.7825 163.161L71.2036 154.54L64.4983 149.112Z" fill="#245DA8"/>
<path d="M0 164.758H15.7104C25.7425 164.758 35.0081 159.391 39.9992 150.688L44.3825 143.046C49.5929 143.879 54.4515 146.201 58.3737 149.731L58.7509 150.07L46.8153 171.606C45.0151 174.854 42.3581 177.546 39.1337 179.389C36.5053 180.891 33.5305 181.681 30.5033 181.681H9.25965L0 164.758Z" fill="#245DA8"/>
</svg>
