<svg width="298" height="200" viewBox="0 0 298 200" fill="none" xmlns="http://www.w3.org/2000/svg">
<path d="M271.643 44.3027H164.189C161.325 44.3027 159.003 46.6245 159.003 49.4886V68.0277C159.003 70.8918 161.325 73.2136 164.189 73.2136H271.643C274.507 73.2136 276.829 70.8918 276.829 68.0277V49.4886C276.829 46.6245 274.507 44.3027 271.643 44.3027Z" fill="#8ED3BA"/>
<path d="M292.803 7.35059H185.349C182.485 7.35059 180.163 9.67239 180.163 12.5365V31.0756C180.163 33.9397 182.485 36.2615 185.349 36.2615H292.803C295.667 36.2615 297.989 33.9397 297.989 31.0756V12.5365C297.989 9.67239 295.667 7.35059 292.803 7.35059Z" fill="#BBE4D5"/>
<path d="M220.52 60.431C223.947 60.0078 226.499 56.4642 225.763 53.0754C225.742 53.0056 225.701 52.9434 225.645 52.8962C225.589 52.8491 225.521 52.8191 225.449 52.8098C225.377 52.8004 225.303 52.8122 225.237 52.8436C225.171 52.875 225.116 52.9248 225.078 52.987C224.431 54.1578 224.003 55.4367 223.814 56.7611C223.629 57.8229 223.702 58.9135 224.026 59.9415C224.171 60.4187 224.425 60.8553 224.77 61.2157C225.115 61.5762 225.539 61.8505 226.009 62.0165C227.077 62.3323 228.258 61.9786 229.123 61.328C230.264 60.4689 230.895 59.1424 231.48 57.8823L230.782 57.6928C230.782 59.5246 233.037 60.5731 234.461 59.4772C235.127 58.9656 235.557 58.2329 236.154 57.6549C236.26 57.5268 236.392 57.4224 236.541 57.3484C236.69 57.2744 236.853 57.2325 237.019 57.2254C237.521 57.2633 237.894 57.7654 238.282 58.0465C240.035 59.3098 242.388 59.0982 244.422 58.874C247.068 58.5767 249.731 58.4543 252.394 58.5076C255.46 58.5767 258.515 58.8936 261.531 59.4551C262.001 59.5435 262.203 58.8235 261.73 58.735C256.646 57.7751 251.457 57.5031 246.301 57.9265C244.201 58.1034 241.88 58.6561 239.817 57.9802C239.316 57.8167 238.852 57.5571 238.45 57.2159C238.108 56.8554 237.669 56.601 237.187 56.4832C236.438 56.3663 235.841 56.8464 235.371 57.3706C234.83 57.9739 234.278 58.9656 233.434 59.1646C233.21 59.2065 232.978 59.2004 232.756 59.1466C232.533 59.0927 232.325 58.9924 232.144 58.8521C231.963 58.7119 231.814 58.535 231.707 58.333C231.599 58.1309 231.536 57.9085 231.521 57.6802C231.521 57.3296 230.984 57.1401 230.823 57.4907C230.267 58.6876 229.673 60.0394 228.542 60.8069C227.538 61.489 226.148 61.6533 225.277 60.6742C224.544 59.8467 224.405 58.5992 224.471 57.5412C224.575 56.0705 224.999 54.6403 225.712 53.3502L225.027 53.2617C225.659 56.1326 223.448 59.3067 220.508 59.6699C220.037 59.7267 220.031 60.4784 220.508 60.4184L220.52 60.431Z" fill="#E6F5F0"/>
<path d="M191.184 67.2262C189.289 64.8302 187.49 62.3572 185.787 59.8074C185.69 59.6965 185.616 59.5672 185.57 59.4272C185.524 59.2873 185.506 59.1395 185.518 58.9926C185.592 58.776 185.731 58.5874 185.916 58.4525C186.949 57.5335 188.127 56.5576 189.51 56.6049C190.269 58.9005 191.522 61.0017 193.18 62.7604L200.808 51.3906L203.577 54.2047C203.681 54.2646 203.768 54.3479 203.833 54.448C203.898 54.548 203.939 54.662 203.952 54.7806C203.965 54.8993 203.95 55.0193 203.908 55.1311C203.866 55.2428 203.798 55.343 203.71 55.4237L193.897 69.1528L192.842 68.019" fill="#E6F5F0"/>
<path d="M197.98 23.4136C199.775 23.7406 201.627 23.4722 203.255 22.6493C204.518 22.0177 206.514 20.4954 205.412 18.8941C205.32 18.7422 205.199 18.6107 205.054 18.5075C204.91 18.4043 204.746 18.3317 204.573 18.2942C204.4 18.2566 204.221 18.2549 204.047 18.2891C203.872 18.3233 203.707 18.3927 203.561 18.493C203.265 18.7368 203.041 19.058 202.916 19.421C202.792 19.7839 202.77 20.1745 202.854 20.5491C203.122 22.0177 204.67 23.0473 206.094 23.1168C208.103 23.2115 209.808 21.6924 211.1 20.3375L210.468 20.0753C210.533 20.6088 210.72 21.12 211.015 21.5688C211.311 22.0176 211.706 22.3918 212.171 22.662C212.661 22.9424 213.216 23.0925 213.781 23.0978C214.479 23.0978 215.158 22.8957 215.856 22.8957C216.554 22.8957 217.271 23.2115 217.975 23.3852C218.65 23.538 219.34 23.6111 220.032 23.6031C221.516 23.6031 223.003 23.3726 224.482 23.2336C230.653 22.6588 236.839 22.3146 243.04 22.2009C246.516 22.1398 249.99 22.1514 253.462 22.2356C253.555 22.227 253.642 22.1839 253.705 22.1146C253.768 22.0454 253.803 21.9551 253.803 21.8613C253.803 21.7676 253.768 21.6773 253.705 21.608C253.642 21.5388 253.555 21.4957 253.462 21.4871C247.529 21.3439 241.595 21.4134 235.662 21.6955C232.714 21.8387 229.766 22.0324 226.819 22.2766C225.345 22.403 223.863 22.5409 222.372 22.6904C220.985 22.8325 219.545 23.0062 218.171 22.6651C217.442 22.4883 216.75 22.1756 215.992 22.1472C215.234 22.1187 214.473 22.3682 213.702 22.3461C213.089 22.3133 212.505 22.0693 212.051 21.6554C211.597 21.2415 211.3 20.6833 211.21 20.0753C211.206 20.0042 211.182 19.9357 211.141 19.8776C211.099 19.8195 211.043 19.7741 210.977 19.7465C210.911 19.7189 210.839 19.7103 210.769 19.7215C210.698 19.7327 210.633 19.7634 210.579 19.81C209.666 20.7575 208.64 21.7492 207.357 22.1693C206.793 22.3804 206.178 22.4159 205.592 22.2711C205.007 22.1262 204.48 21.8078 204.079 21.3576C203.891 21.1575 203.749 20.9179 203.665 20.6561C203.581 20.3944 203.556 20.1172 203.593 19.8448C203.687 19.311 204.224 18.6541 204.736 19.2131C205.75 20.3691 203.602 21.6418 202.772 22.0556C201.348 22.7424 199.745 22.9634 198.189 22.6872C197.718 22.602 197.516 23.3189 197.99 23.4105L197.98 23.4136Z" fill="#62C29F"/>
<path d="M258.503 21.4812C258.974 21.7482 259.529 21.824 260.054 21.6928C260.144 21.6616 260.219 21.5972 260.264 21.5127C260.308 21.4282 260.319 21.33 260.294 21.2379C260.268 21.1458 260.209 21.0668 260.127 21.017C260.046 20.9671 259.949 20.9502 259.855 20.9695C259.792 20.9864 259.729 20.999 259.666 21.0074H259.767C259.618 21.0264 259.467 21.0264 259.318 21.0074H259.416C259.268 20.986 259.122 20.9468 258.983 20.8906L259.072 20.9285C259.005 20.9001 258.942 20.8685 258.879 20.8337C258.836 20.8036 258.788 20.7826 258.737 20.7722C258.686 20.7618 258.633 20.7621 258.582 20.7733C258.531 20.7844 258.483 20.806 258.441 20.8367C258.398 20.8675 258.363 20.9067 258.337 20.9518C258.311 20.997 258.294 21.0471 258.288 21.0989C258.283 21.1508 258.288 21.2033 258.303 21.2532C258.319 21.303 258.345 21.349 258.379 21.3882C258.414 21.4275 258.456 21.4591 258.503 21.4812Z" fill="#62C29F"/>
<path d="M262.566 23.5874L264.24 22.9558C264.291 22.9454 264.338 22.9247 264.38 22.8952C264.422 22.8656 264.458 22.8277 264.485 22.7839C264.511 22.7401 264.529 22.6912 264.536 22.6403C264.543 22.5894 264.54 22.5376 264.526 22.4881C264.513 22.4385 264.489 22.3923 264.457 22.3522C264.425 22.3122 264.385 22.2792 264.339 22.2552C264.294 22.2313 264.244 22.2169 264.193 22.213C264.141 22.2091 264.09 22.2157 264.041 22.2325L262.367 22.8642C262.277 22.8954 262.202 22.9598 262.158 23.0443C262.113 23.1288 262.102 23.227 262.128 23.3191C262.153 23.4112 262.212 23.4902 262.294 23.54C262.375 23.5898 262.473 23.6068 262.566 23.5874Z" fill="#62C29F"/>
<path d="M268.624 22.9497C268.757 22.896 268.893 22.8517 269.032 22.817C269.09 22.8014 269.149 22.7888 269.209 22.7792L269.329 22.757H269.351C269.351 22.757 269.613 22.7349 269.746 22.7349H269.96H270.052H270.112C270.061 22.7349 270.061 22.7349 270.112 22.7349C270.209 22.7574 270.311 22.7439 270.399 22.697C270.483 22.6464 270.545 22.5665 270.573 22.4728C270.598 22.3769 270.585 22.2749 270.536 22.1887C270.487 22.1025 270.406 22.039 270.311 22.0117C269.68 21.9092 269.032 21.9756 268.435 22.2044C268.343 22.2337 268.264 22.2954 268.214 22.3781C268.188 22.4209 268.172 22.4684 268.165 22.5178C268.159 22.5673 268.162 22.6175 268.176 22.6655C268.203 22.7605 268.265 22.8414 268.351 22.8904C268.437 22.9395 268.538 22.9528 268.634 22.9276L268.624 22.9497Z" fill="#62C29F"/>
<path d="M274.719 24.086C275.9 23.6122 277.201 22.8227 277.909 21.7173C278.616 20.6119 276.696 19.917 276.393 21.114C276.339 21.3754 276.378 21.6475 276.503 21.8833C276.628 22.1192 276.832 22.3039 277.078 22.4058C277.675 22.6616 278.301 22.45 278.856 22.1942C279.444 21.8923 280.091 21.725 280.751 21.7046C281.406 21.7205 282.057 21.8063 282.694 21.9604C284.112 22.2763 285.555 22.6458 287.002 22.2952C287.472 22.1815 287.273 21.4614 286.803 21.572C284.466 22.1373 282.188 20.6024 279.832 21.0445C279.245 21.1551 278.755 21.4583 278.199 21.6762C278.059 21.747 277.905 21.7854 277.748 21.7887C277.592 21.792 277.436 21.76 277.293 21.6951C277.167 21.6162 276.977 21.2435 277.227 21.2372C277.476 21.2309 276.952 21.6983 276.892 21.7615C276.687 21.98 276.466 22.1837 276.232 22.371C275.712 22.79 275.131 23.1286 274.511 23.3754C274.072 23.5522 274.264 24.2786 274.71 24.0986L274.719 24.086Z" fill="#62C29F"/>
<path d="M292.808 81.2539H185.354C182.49 81.2539 180.168 83.5757 180.168 86.4398V104.979C180.168 107.843 182.49 110.165 185.354 110.165H292.808C295.672 110.165 297.994 107.843 297.994 104.979V86.4398C297.994 83.5757 295.672 81.2539 292.808 81.2539Z" fill="#C6DDFB"/>
<path d="M292.808 117.89H185.354C182.49 117.89 180.168 120.211 180.168 123.076V141.615C180.168 144.479 182.49 146.801 185.354 146.801H292.808C295.672 146.801 297.994 144.479 297.994 141.615V123.076C297.994 120.211 295.672 117.89 292.808 117.89Z" fill="#C6DDFB"/>
<path d="M195.139 95.8834C197.76 96.1992 200.088 93.2525 199.197 90.7796C199.168 90.6856 199.104 90.6063 199.018 90.5576C198.933 90.5089 198.832 90.4946 198.736 90.5175C196.813 90.8333 196.004 93.4642 197.084 94.977C198.392 96.8088 201.281 96.3382 202.478 94.6611H201.847C202.965 96.1361 204.841 96.6098 206.625 96.4929C208.89 96.3382 210.952 95.2296 213.201 94.9801C215.649 94.7085 218.09 95.4381 220.465 95.8392C225.703 96.7199 231.028 96.9722 236.326 96.5908C236.803 96.5561 236.806 95.8076 236.326 95.8392C231.454 96.1956 226.559 96.0102 221.728 95.2865C219.391 94.9327 217.063 94.2727 214.695 94.1842C212.377 94.099 210.311 94.9801 208.097 95.5012C206.234 95.9402 203.761 95.975 202.478 94.2821C202.443 94.2307 202.396 94.1886 202.341 94.1595C202.286 94.1304 202.225 94.1152 202.163 94.1152C202.1 94.1152 202.039 94.1304 201.984 94.1595C201.929 94.1886 201.882 94.2307 201.847 94.2821C200.959 95.5455 198.651 95.9371 197.697 94.5348C196.923 93.3947 197.536 91.4871 198.96 91.247L198.499 90.9849C199.238 93.0378 197.321 95.4065 195.164 95.1412C194.687 95.0843 194.693 95.8328 195.164 95.8897L195.139 95.8834Z" fill="#7DB1F5"/>
<path d="M242.509 97.1812L244.821 96.5938C244.916 96.5665 244.996 96.5028 245.045 96.4165C245.093 96.3301 245.106 96.2281 245.08 96.1327C245.052 96.0385 244.988 95.9587 244.903 95.9099C244.818 95.8611 244.717 95.847 244.622 95.8705L242.31 96.458C242.219 96.4892 242.144 96.5535 242.1 96.638C242.055 96.7225 242.045 96.8208 242.07 96.9129C242.095 97.0049 242.155 97.0839 242.236 97.1338C242.318 97.1836 242.415 97.2006 242.509 97.1812Z" fill="#7DB1F5"/>
<path d="M249.822 97.3613C250.748 97.1484 251.703 97.0876 252.649 97.1812C252.701 97.186 252.753 97.1799 252.803 97.1633C252.852 97.1466 252.898 97.1199 252.937 97.0846C252.975 97.0494 253.006 97.0065 253.027 96.9587C253.048 96.9109 253.059 96.8592 253.059 96.807C253.059 96.7547 253.048 96.7031 253.027 96.6552C253.006 96.6074 252.975 96.5645 252.937 96.5293C252.898 96.4941 252.852 96.4673 252.803 96.4507C252.753 96.4341 252.701 96.4279 252.649 96.4327C251.636 96.3379 250.614 96.4072 249.623 96.638C249.533 96.6692 249.458 96.7336 249.413 96.8181C249.369 96.9026 249.358 97.0008 249.384 97.0929C249.409 97.185 249.468 97.264 249.55 97.3138C249.631 97.3637 249.729 97.3806 249.822 97.3613Z" fill="#7DB1F5"/>
<path d="M259.32 97.5444C261.438 96.5022 263.819 96.1162 266.158 96.4358C266.626 96.54 267.114 96.5059 267.563 96.3379C267.77 96.2255 267.951 96.0711 268.095 95.8845C268.238 95.6979 268.341 95.4834 268.397 95.2546C268.747 94.0564 268.966 92.8238 269.051 91.5784C269.05 91.5208 269.037 91.4642 269.011 91.4127C268.985 91.3613 268.948 91.3164 268.902 91.2814C268.857 91.2463 268.804 91.2222 268.747 91.2107C268.691 91.1993 268.633 91.2008 268.577 91.2152C267.579 91.5942 267.219 92.7722 267.598 93.726C268.056 94.8819 269.43 95.3051 270.573 95.2767C271.387 95.2088 272.194 95.0758 272.986 94.8788C273.8 94.7237 274.632 94.6896 275.456 94.7777C276.282 94.8735 277.096 95.0545 277.885 95.3178C278.595 95.5452 279.296 95.921 280.054 95.9494C280.923 95.9936 281.848 95.6873 282.695 95.5199L285.537 94.9546C286.008 94.8598 285.809 94.1397 285.338 94.2313L281.071 95.1062C280.739 95.1891 280.397 95.2284 280.054 95.223C279.728 95.1876 279.408 95.1036 279.107 94.9735C278.444 94.7174 277.767 94.5001 277.079 94.3229C275.773 93.9836 274.412 93.9137 273.078 94.1176C271.833 94.3229 270.497 94.8314 269.256 94.3355C268.991 94.2492 268.754 94.0936 268.57 93.8848C268.386 93.676 268.26 93.4216 268.208 93.148C268.148 92.6932 268.305 92.1279 268.773 91.951L268.299 91.591C268.213 92.749 268.009 93.8951 267.69 95.0114C267.51 95.5957 267.165 95.7884 266.565 95.7473C266.06 95.7094 265.564 95.621 265.059 95.5957C262.94 95.508 260.833 95.9612 258.938 96.9127C258.505 97.1275 258.884 97.7717 259.317 97.5444H259.32Z" fill="#7DB1F5"/>
<path d="M195.607 132.757L209.819 134.02C211.784 134.194 214.032 134.589 215.848 133.578C217.093 132.883 217.898 131.276 217.478 129.867C217.276 129.191 216.695 128.496 215.953 128.417C215.141 128.335 214.563 129.141 214.339 129.829C213.897 131.181 214.607 132.725 215.678 133.568C216.988 134.604 218.773 134.462 220.172 133.669C220.948 133.216 221.619 132.602 222.14 131.869C222.395 131.522 222.572 131.137 222.8 130.777C222.967 130.511 223.258 130.202 223.577 130.432C223.833 130.68 224.025 130.987 224.136 131.326C224.297 131.683 224.451 132.056 224.632 132.4C224.856 132.772 225.166 133.086 225.537 133.314C225.907 133.542 226.327 133.678 226.76 133.711C228.92 133.954 230.427 132.22 231.621 130.679C231.855 130.363 231.554 129.829 231.166 130.091C230.279 130.691 230.459 132.005 231.251 132.618C232.357 133.474 233.816 132.555 234.438 131.557L233.74 131.367C233.683 132.517 234.89 132.962 235.837 133.063C236.533 133.098 237.23 133.075 237.922 132.994L240.575 132.823C242.154 132.722 243.758 132.716 245.312 132.435C246.575 132.207 247.895 131.658 248.565 130.486C249.181 129.412 249.247 127.925 248.249 127.05C248.178 126.98 248.083 126.941 247.984 126.941C247.885 126.941 247.789 126.98 247.719 127.05C247.428 127.431 247.249 127.887 247.203 128.365C247.158 128.842 247.246 129.323 247.46 129.753C247.673 130.231 248.032 130.628 248.487 130.887C248.941 131.146 249.467 131.254 249.986 131.193C250.672 131.083 251.345 130.909 251.998 130.672C252.741 130.456 253.518 130.386 254.288 130.464C255.801 130.612 257.241 131.222 258.624 131.806C259.069 131.992 259.256 131.269 258.826 131.083C257.632 130.529 256.381 130.106 255.096 129.82C253.859 129.587 252.583 129.673 251.388 130.069C250.39 130.385 249.146 130.802 248.372 129.835C247.88 129.204 247.741 128.221 248.237 127.568H247.706C248.445 128.221 248.357 129.302 247.899 130.094C247.336 131.08 246.218 131.493 245.157 131.689C243.839 131.88 242.51 131.992 241.178 132.024L236.807 132.311C236.134 132.356 234.416 132.397 234.466 131.364C234.463 131.283 234.434 131.206 234.384 131.143C234.334 131.08 234.265 131.034 234.187 131.013C234.109 130.992 234.027 130.996 233.951 131.025C233.876 131.054 233.812 131.106 233.768 131.174C233.393 131.775 232.505 132.526 231.747 132.068C231.352 131.825 231.055 131.054 231.523 130.735L231.081 130.164C230.133 131.408 228.946 132.956 227.224 133.006C226.882 133.033 226.538 132.979 226.22 132.847C225.903 132.715 225.621 132.51 225.399 132.248C225.017 131.733 224.859 131.067 224.546 130.511C224.287 130.053 223.892 129.611 223.324 129.621C222.55 129.64 222.203 130.325 221.868 130.915C221.11 132.261 219.72 133.464 218.122 133.578C217.467 133.628 216.814 133.458 216.267 133.093C215.72 132.728 215.311 132.191 215.106 131.566C214.891 131.013 214.9 130.398 215.131 129.851C215.277 129.535 215.567 129.099 215.959 129.204C216.112 129.261 216.252 129.347 216.371 129.458C216.49 129.569 216.586 129.703 216.654 129.851C217.263 131.077 216.338 132.545 215.232 133.069C213.568 133.856 211.487 133.442 209.731 133.284L195.607 132.021C195.127 131.977 195.13 132.728 195.607 132.769V132.757Z" fill="#7DB1F5"/>
<path d="M263.617 131.651L265.083 131.443C265.178 131.415 265.258 131.351 265.306 131.265C265.354 131.179 265.367 131.077 265.342 130.982C265.316 130.888 265.255 130.808 265.171 130.758C265.083 130.712 264.981 130.699 264.884 130.72L263.418 130.928C263.324 130.955 263.244 131.017 263.194 131.102C263.146 131.189 263.132 131.292 263.156 131.389C263.184 131.483 263.246 131.563 263.33 131.613C263.419 131.659 263.52 131.672 263.617 131.651Z" fill="#7DB1F5"/>
<path d="M269.68 132.059L270.514 131.85C270.608 131.825 270.688 131.764 270.738 131.68C270.788 131.591 270.802 131.487 270.776 131.389C270.748 131.294 270.684 131.214 270.598 131.166C270.512 131.117 270.41 131.105 270.315 131.13L269.481 131.338C269.387 131.364 269.306 131.425 269.257 131.509C269.207 131.597 269.193 131.701 269.219 131.8C269.247 131.894 269.311 131.974 269.397 132.023C269.483 132.071 269.584 132.084 269.68 132.059Z" fill="#7DB1F5"/>
<path d="M274.497 132.093C275.801 131.651 277.134 132.57 278.464 132.279C279.894 131.963 280.577 130.22 280.959 128.979C281.126 128.429 281.521 127.4 281.12 126.888C280.681 126.313 279.964 126.752 279.664 127.235C278.963 128.366 278.852 130.078 280.011 130.931C280.659 131.408 281.489 131.524 282.257 131.667L285.339 132.238C285.81 132.323 286.012 131.607 285.538 131.515C284.215 131.272 282.876 131.073 281.565 130.77C281.04 130.698 280.553 130.454 280.182 130.075C280.027 129.842 279.927 129.577 279.891 129.3C279.855 129.023 279.883 128.741 279.973 128.477C280.036 128.209 280.131 127.95 280.258 127.706C280.315 127.602 280.4 127.444 280.513 127.39C280.627 127.337 280.513 127.365 280.532 127.39C280.551 127.415 280.513 127.592 280.504 127.652C280.405 128.287 280.23 128.907 279.983 129.5C279.566 130.533 278.991 131.651 277.728 131.6C276.569 131.553 275.457 130.988 274.298 131.382C273.846 131.534 274.039 132.257 274.497 132.102V132.093Z" fill="#7DB1F5"/>
<g style="mix-blend-mode:multiply">
<path d="M178.032 54.8711C178.893 54.7862 180.809 54.4768 182.585 55.4844C183.749 56.1451 183.936 57.7879 183.305 58.9307C182.673 60.0734 181.467 60.8107 180.256 61.3955C179.198 61.9015 178.615 62.2516 178.121 62.5059C179.037 62.9286 179.806 64.0024 180.798 65.4756C181.496 66.5116 181.83 67.9115 181.258 68.9863C182.506 69.3919 183.569 70.3722 184.002 71.6934C184.153 72.1552 184.23 72.6283 184.243 73.1025H159.816C160.106 69.1705 160.634 65.3001 162.993 62.1582C166.668 58.3336 170.676 55.5961 178.032 54.8711Z" fill="#C6DDFB"/>
</g>
<path d="M105.456 107.217C113.295 132.881 114.57 160.1 114.259 186.92C114.259 188.004 114.259 189.142 114.704 190.102C115.441 191.582 117.184 192.408 117.788 193.95C118.468 195.679 117.388 197.701 115.81 198.683C114.233 199.665 112.3 199.839 110.446 199.923C104.478 200.182 98.4988 199.784 92.6171 198.737C90.9729 198.448 89.1953 198.025 88.1731 196.706C87.0488 195.252 87.2132 193.217 87.4088 191.373C90.2441 164.989 87.2621 132.979 80.9739 107.199" fill="#8ED3BA"/>
<path d="M64.2721 110.071C66.6496 121.029 69.0405 132.064 69.3249 143.272C69.6093 154.479 67.6539 166.003 61.8767 175.615C58.5749 181.125 53.9975 186.107 52.5444 192.369C52.1266 194.191 51.7933 196.368 50.1268 197.217C48.4603 198.066 46.5716 197.106 45.0385 196.106C40.153 192.918 35.8033 188.976 32.1509 184.427C30.5199 182.392 28.9779 180.09 28.8046 177.49C28.5957 174.308 30.4888 171.344 32.7731 169.122C35.0573 166.9 37.7903 165.158 39.9856 162.852C44.5141 158.097 46.3761 151.297 46.4072 144.725C46.4383 138.152 41.661 111.088 40.0523 104.729C41.9055 112.061 38.1947 97.3918 40.0523 104.729" fill="#8ED3BA"/>
<path d="M22.3879 91.2812C9.61459 106.776 3.42138 126.659 5.1363 146.667C-0.240932 150.453 -0.298702 158.257 0.194584 164.816C0.27013 165.816 0.567879 167.078 1.55889 167.242C2.33215 167.371 2.9943 166.705 3.44314 166.065C5.16582 163.597 6.02363 160.628 5.88288 157.621C5.27712 159.177 5.18364 160.885 5.61606 162.497C6.04849 164.109 6.98424 165.541 8.28707 166.585C9.03366 167.153 10.118 167.571 10.8646 167.007C11.6112 166.442 11.5267 165.451 11.429 164.589L10.709 158.168C9.95357 161.536 13.0155 165.194 16.464 165.043L15.7308 152.946C15.8996 152.368 16.7795 152.377 17.2417 152.764C17.7039 153.15 17.9528 153.742 18.4149 154.128C19.7481 155.261 21.9701 153.777 22.1834 152.026C22.3967 150.275 21.3524 148.653 20.3747 147.191C17.8816 143.458 15.433 139.534 14.6509 135.117C13.6199 129.268 15.6374 123.336 17.9928 117.887C21.6946 109.319 26.7252 100.716 34.9199 96.2541" fill="#C6DDFB"/>
<g style="mix-blend-mode:multiply">
<path d="M22.3898 91.2803L34.9219 96.2709C27.887 100.097 23.1897 106.981 19.6568 114.269C16.8884 112.312 14.3653 110.029 12.142 107.47C14.8517 101.657 18.2957 96.2164 22.3898 91.2803Z" fill="#EAF3FD"/>
</g>
<path d="M39.1651 50.7293C42.5927 38.4741 42.1723 25.4616 37.9607 13.4532C36.5298 9.40024 33.6456 4.84516 29.3616 5.13846C26.5841 5.33399 24.3399 7.69375 23.4022 10.3157C22.4645 12.9377 22.5623 15.7996 22.6467 18.5815C23.0825 33.3186 22.7621 48.0683 21.6868 62.7726" fill="#A1C7F8"/>
<path d="M8.35451 67.7415C8.47893 63.262 9.00333 58.6802 11.0209 54.6895C14.385 48.0902 22.3753 45.5838 31.1744 43.5262C32.7387 43.1559 34.3163 42.8477 35.9072 42.6018C60.3225 38.7889 85.1466 36.5313 109.713 39.1089C115.419 39.7088 121.352 40.6687 125.978 44.055C133.017 49.2012 135.31 58.5113 137.088 67.0438C139.03 76.2917 140.754 86.7618 135.333 94.5076C132.12 99.1072 126.889 101.862 121.676 103.924C108.384 109.191 94.0168 111.035 79.7739 112.266C66.5752 113.386 53.0521 113.95 40.3157 110.315C27.5792 106.68 15.616 98.1739 10.9009 85.7885C8.72334 80.0736 8.18562 73.852 8.35451 67.7415Z" fill="#C6DDFB"/>
<g style="mix-blend-mode:multiply" opacity="0.8">
<path d="M128.205 88.667C130.103 90.4712 132.711 91.3734 134.77 92.9951C135.15 93.2532 135.444 93.6163 135.612 94.0381C135.615 94.053 135.617 94.0681 135.62 94.083C135.526 94.2253 135.431 94.3673 135.333 94.5078C134.269 96.0314 132.982 97.351 131.549 98.5117C131.51 98.4985 131.47 98.4856 131.432 98.4707C130.589 98.1331 129.853 97.5822 129.299 96.875C128.031 95.3771 127.53 93.8661 127.1 92.1396L128.205 88.667Z" fill="#A1C7F8"/>
</g>
<path d="M108.628 55.8892C119.414 42.4106 122.405 23.1192 116.237 7.00531C114.828 3.32568 111.761 -0.802777 107.931 0.134904C106.482 0.485979 105.304 1.54364 104.34 2.6813C100.34 7.41859 99.0916 13.8268 97.674 19.8706C95.1521 30.4259 91.593 40.7059 87.0484 50.5608" fill="#C6DDFB"/>
<path d="M130.902 77.7045C134.715 82.2108 138.684 86.8369 143.972 89.4545C145.888 90.401 148.025 91.0721 150.145 90.8143C155.74 90.1344 158.588 83.6639 159.162 78.0556C159.735 72.4473 159.286 66.3102 162.57 61.7284C166.125 56.8 172.747 55.4135 178.782 54.8091C179.6 54.7247 180.48 54.6669 181.186 55.0846C182.293 55.7423 182.47 57.3777 181.871 58.5154C181.271 59.6531 180.124 60.3863 178.973 60.9685C176.376 62.2704 173.55 63.0537 170.654 63.2749C173.405 61.3595 177.675 62.2083 179.489 65.0303C180.217 66.1635 180.533 67.7367 179.742 68.8343C178.951 69.932 176.84 69.8298 176.538 68.5144C178.706 67.2212 181.782 68.8166 182.533 71.2208C183.284 73.625 182.128 76.3225 180.257 78.0156C178.386 79.7088 175.92 80.5709 173.48 81.2242C172.036 81.6152 170.498 81.9841 169.441 83.0418C168.81 83.7445 168.319 84.5603 167.992 85.446C166.308 89.3389 164.966 93.534 162.037 96.5959C157.437 101.4 149.838 102.24 143.448 100.396C137.057 98.5513 131.587 94.485 126.267 90.4943" fill="#C6DDFB"/>
</svg>
