<svg width="397" height="223" viewBox="0 0 397 223" fill="none" xmlns="http://www.w3.org/2000/svg">
<path d="M1.94141 1.60645C10.7821 19.0961 23.2382 34.4778 35.8476 49.489C78.4518 100.246 123.85 148.591 171.83 194.299C182.05 204.009 192.437 213.68 204.408 221.128C205.928 222.086 207.653 223.031 209.416 222.687C211.971 222.214 213.248 219.518 214.104 217.142C231.053 172.464 245.679 126.94 257.924 80.7507C259.802 73.6986 261.323 65.2923 256.468 59.8372C254.325 57.7316 251.766 56.0957 248.956 55.0336C233.974 48.2585 218.42 42.8247 202.479 38.7959" fill="#04402A"/>
<path d="M345.258 28.6171C230.662 14.036 115.576 4.49698 0 0C8.94285 27.3396 33.9317 45.8513 58.0519 61.5524C138.051 113.612 224.399 155.294 312.477 192.15C316.054 193.647 319.874 190.671 319.215 186.85C313.871 155.86 303.935 125.822 289.723 97.7326C287.73 93.7978 285.162 89.518 280.882 88.5087C276.602 87.4994 271.607 92.9163 274.494 96.174C313.506 82.4382 350.966 64.6691 386.267 43.1619C390.053 40.8553 389.062 35.2917 384.691 34.55C372.721 32.519 359.982 31.1533 345.284 28.5916" fill="#1C4984"/>
<path d="M13.402 7.79627C30.4189 19.7414 49.3522 28.5182 68.7838 35.7491C88.5475 43.1206 108.835 48.9462 128.918 55.3211C140.212 58.911 151.454 62.6671 162.505 66.9596L161.227 64.7239C160.499 68.5566 155.044 70.3835 152.284 67.509V70.0641C156.462 66.3081 162.288 65.912 167.615 66.2953C174.16 66.9755 180.664 68.0075 187.098 69.387C201.049 71.9421 214.927 74.8677 228.733 78.1637C236.637 80.0545 244.519 82.0603 252.381 84.181C252.61 84.2448 252.851 84.2626 253.087 84.2336C253.324 84.2045 253.553 84.1291 253.76 84.0117C253.968 83.8942 254.15 83.737 254.297 83.5491C254.444 83.3611 254.553 83.1461 254.616 82.9162C254.68 82.6864 254.698 82.4463 254.669 82.2095C254.64 81.9728 254.564 81.744 254.447 81.5364C254.329 81.3288 254.172 81.1464 253.984 80.9995C253.796 80.8527 253.581 80.7443 253.352 80.6805C238.873 76.7627 224.27 73.2409 209.544 70.1152C202.305 68.5821 195.04 67.1513 187.749 65.8226C181.1 64.4074 174.379 63.354 167.615 62.667C161.227 62.1944 154.622 63.0631 149.729 67.4834C149.398 67.8264 149.213 68.2844 149.213 68.761C149.213 69.2376 149.398 69.6956 149.729 70.0385C154.316 74.7527 163.54 72.1848 164.792 65.631C164.901 65.1659 164.829 64.6768 164.592 64.262C164.355 63.8473 163.97 63.5376 163.514 63.3953C144.006 55.8322 123.91 49.9171 103.955 43.6699C83.9994 37.4227 64.274 30.8944 45.4685 21.9515C34.9219 17.0504 24.8101 11.2636 15.2416 4.65347C13.3253 3.29927 11.4984 6.45485 13.402 7.79627Z" fill="#143560"/>
</svg>
